<svg version="1.2" xmlns="http://www.w3.org/2000/svg" width="131" height="150"><path fill-rule="evenodd" d="M70.3 3.5l57.8 31.9c3.2 3.2 3.7 7.9 1.7 11.7.5 1.2.8 2.5.8 3.8v54.5c0 5.5.5 9.9-5 9.9L70.9 150c-1.8 0-3.5-.5-5-1.3-1.4.8-3.1 1.3-4.9 1.3l-49.8-34.7c-5.5 0-9.9-4.4-9.9-9.9V50.9c0-1.4.3-2.7.8-3.9C.2 43.2.8 38.5 3.9 35.4L61.2 3.5c7.4-3.5 2.6-3.1 9.1 0zM11.2 41l52.7 31.8q1.1.3 2 .9 1.1-.6 2.3-1l52.3-31.6.1-.1-54.8-30.5zm0 64.4L61 140.1V82.2L11.2 50.9zm109.4-54.5L70.9 82.3v57.8l49.7-34.7z" style="mix-blend-mode:overlay" fill-opacity=".1" fill="#fff"/></svg>